<svg width="128" height="128" viewBox="0 0 128 128" fill="none" xmlns="http://www.w3.org/2000/svg">
<path d="M44.3446 96.8828C45.5317 96.9109 46.692 96.5272 47.6283 95.7969C48.481 95.1198 49.0526 94.1509 49.2329 93.0771C49.4131 92.0033 49.1892 90.9008 48.6044 89.9824C47.8651 88.8313 44.8165 85.5161 36.2516 89.5046C35.049 88.2028 32.2499 84.382 32.2499 77V56.2002C32.2502 56.0014 32.3293 55.8108 32.4699 55.6702C32.6105 55.5296 32.8011 55.4505 32.9999 55.4502C34.2592 55.4516 35.4666 55.9525 36.3571 56.843C37.2476 57.7335 37.7485 58.9409 37.7499 60.2002V72C37.7499 72.3315 37.8816 72.6495 38.116 72.8839C38.3504 73.1183 38.6684 73.25 38.9999 73.25C39.3314 73.25 39.6494 73.1183 39.8838 72.8839C40.1182 72.6495 40.2499 72.3315 40.2499 72V38C40.2499 37.2707 40.5396 36.5712 41.0554 36.0555C41.5711 35.5397 42.2706 35.25 42.9999 35.25C43.7292 35.25 44.4287 35.5397 44.9444 36.0555C45.4602 36.5712 45.7499 37.2707 45.7499 38V62.7998C45.7499 63.1313 45.8816 63.4493 46.116 63.6837C46.3504 63.9181 46.6684 64.0498 46.9999 64.0498C47.3314 64.0498 47.6494 63.9181 47.8838 63.6837C48.1182 63.4493 48.2499 63.1313 48.2499 62.7998V35C48.2499 34.2707 48.5396 33.5712 49.0554 33.0555C49.5711 32.5397 50.2706 32.25 50.9999 32.25C51.7292 32.25 52.4287 32.5397 52.9444 33.0555C53.4602 33.5712 53.7499 34.2707 53.7499 35V62.7998C53.7499 63.1313 53.8816 63.4493 54.116 63.6837C54.3504 63.9181 54.6684 64.0498 54.9999 64.0498C55.3314 64.0498 55.6494 63.9181 55.8838 63.6837C56.1182 63.4493 56.2499 63.1313 56.2499 62.7998V38C56.2499 37.2707 56.5396 36.5712 57.0554 36.0555C57.5711 35.5397 58.2706 35.25 58.9999 35.25C59.7292 35.25 60.4287 35.5397 60.9444 36.0555C61.4602 36.5712 61.7499 37.2707 61.7499 38V62.7998C61.7499 63.1313 61.8816 63.4493 62.116 63.6837C62.3504 63.9181 62.6684 64.0498 62.9999 64.0498C63.3314 64.0498 63.6494 63.9181 63.8838 63.6837C64.1182 63.4493 64.2499 63.1313 64.2499 62.7998V38C64.2507 37.0461 63.9914 36.11 63.4998 35.2924C63.0082 34.4749 62.303 33.8069 61.46 33.3603C60.6171 32.9137 59.6683 32.7055 58.7158 32.7579C57.7633 32.8104 56.8431 33.1216 56.0543 33.6581C55.7633 32.539 55.1092 31.5482 54.1944 30.841C53.2797 30.1337 52.1562 29.75 50.9999 29.75C49.8436 29.75 48.7201 30.1337 47.8054 30.841C46.8906 31.5482 46.2365 32.539 45.9455 33.6581C45.1567 33.1216 44.2365 32.8104 43.284 32.7579C42.3315 32.7055 41.3827 32.9137 40.5398 33.3603C39.6968 33.8069 38.9916 34.4749 38.5 35.2924C38.0084 36.11 37.7491 37.0461 37.7499 38V54.7359C36.4352 53.5849 34.7473 52.9504 32.9999 52.9502C32.1382 52.9512 31.3122 53.2939 30.7029 53.9032C30.0936 54.5125 29.7509 55.3386 29.7499 56.2002V77C29.7499 84.3272 32.3139 88.6416 33.933 90.6357L11.4408 101.882C11.1443 102.03 10.9188 102.29 10.8139 102.605C10.7091 102.919 10.7335 103.263 10.8817 103.559C11.03 103.856 11.29 104.081 11.6046 104.186C11.9191 104.291 12.2624 104.266 12.559 104.118L35.7807 92.5074C39.1586 95.6789 42.0878 96.8828 44.3446 96.8828ZM46.5009 91.333C46.7514 91.733 46.8449 92.2115 46.7635 92.6764C46.6821 93.1413 46.4315 93.5595 46.06 93.8506C44.81 94.8594 42.062 94.7119 38.2089 91.3564C42.9979 89.3408 45.6542 90.0166 46.5009 91.333Z" fill="black" stroke="black" stroke-width="1.2"/>
<path d="M115.559 101.882L83.9809 86.0928C82.857 85.5356 81.9118 84.6747 81.2523 83.6076C80.5928 82.5405 80.2456 81.31 80.2499 80.0557V42C80.2499 40.6076 79.6968 39.2723 78.7122 38.2877C77.7276 37.3031 76.3923 36.75 74.9999 36.75C73.6075 36.75 72.2722 37.3031 71.2876 38.2877C70.303 39.2723 69.7499 40.6076 69.7499 42V80.8965C69.7499 92.0723 64.3129 100.946 54.4408 105.882L36.4408 114.882C36.1443 115.03 35.9188 115.29 35.8139 115.605C35.7091 115.919 35.7335 116.263 35.8817 116.559C36.03 116.856 36.29 117.081 36.6046 117.186C36.9191 117.291 37.2624 117.266 37.559 117.118L55.559 108.118C58.1611 106.832 60.5782 105.201 62.745 103.27L90.4408 117.118C90.7373 117.266 91.0806 117.291 91.3952 117.186C91.7097 117.081 91.9697 116.856 92.118 116.559C92.2663 116.263 92.2907 115.919 92.1858 115.605C92.081 115.29 91.8555 115.03 91.5589 114.882L64.6151 101.41C69.5875 96.0435 72.2499 89.0345 72.2499 80.8965V42C72.2499 41.2707 72.5396 40.5712 73.0554 40.0555C73.5711 39.5397 74.2706 39.25 74.9999 39.25C75.7292 39.25 76.4287 39.5397 76.9444 40.0555C77.4602 40.5712 77.7499 41.2707 77.7499 42V80.0557C77.7439 81.7748 78.2197 83.4612 79.1235 84.9235C80.0273 86.3859 81.3229 87.5657 82.8632 88.3291L114.441 104.118C114.737 104.266 115.081 104.291 115.395 104.186C115.71 104.081 115.97 103.856 116.118 103.559C116.266 103.263 116.291 102.919 116.186 102.605C116.081 102.29 115.856 102.03 115.559 101.882Z" fill="black" stroke="black" stroke-width="1.2"/>
<path d="M71.9998 25.2502C72.164 25.2504 72.3266 25.2181 72.4783 25.1553C72.6299 25.0924 72.7677 25.0002 72.8836 24.884L80.8836 16.884C81.1173 16.6494 81.2483 16.3317 81.248 16.0007C81.2477 15.6696 81.1161 15.3521 80.8819 15.118C80.6478 14.8839 80.3304 14.7523 79.9993 14.752C79.6682 14.7516 79.3506 14.8827 79.116 15.1164L71.116 23.1164C70.9412 23.2912 70.8222 23.5139 70.774 23.7564C70.7258 23.9988 70.7505 24.2501 70.8451 24.4785C70.9397 24.7069 71.0999 24.9021 71.3054 25.0394C71.511 25.1768 71.7526 25.2501 71.9998 25.2502Z" fill="black" stroke="black" stroke-width="1.2"/>
<path d="M55.1161 24.884C55.2321 25.0004 55.3699 25.0928 55.5217 25.1559C55.6734 25.219 55.8361 25.2515 56.0004 25.2517C56.1647 25.2518 56.3275 25.2196 56.4793 25.1568C56.6312 25.094 56.7692 25.0018 56.8854 24.8856C57.0016 24.7694 57.0937 24.6314 57.1565 24.4796C57.2193 24.3277 57.2516 24.165 57.2515 24.0007C57.2513 23.8363 57.2187 23.6736 57.1556 23.5219C57.0925 23.3702 57.0001 23.2324 56.8837 23.1164L48.8837 15.1164C48.6492 14.8827 48.3315 14.7516 48.0004 14.752C47.6693 14.7523 47.3519 14.8839 47.1178 15.118C46.8837 15.3521 46.752 15.6696 46.7517 16.0007C46.7514 16.3317 46.8825 16.6494 47.1161 16.884L55.1161 24.884Z" fill="black" stroke="black" stroke-width="1.2"/>
<path d="M64 24.25C64.1642 24.25 64.3267 24.2177 64.4784 24.1549C64.63 24.0921 64.7678 24 64.8839 23.8839C65 23.7678 65.0921 23.63 65.1549 23.4784C65.2177 23.3267 65.25 23.1642 65.25 23V12C65.25 11.6685 65.1183 11.3505 64.8839 11.1161C64.6495 10.8817 64.3315 10.75 64 10.75C63.6685 10.75 63.3505 10.8817 63.1161 11.1161C62.8817 11.3505 62.75 11.6685 62.75 12V23C62.75 23.1642 62.7823 23.3267 62.8451 23.4784C62.9079 23.63 63 23.7678 63.1161 23.8839C63.2322 24 63.37 24.0921 63.5216 24.1549C63.6733 24.2177 63.8358 24.25 64 24.25Z" fill="black" stroke="black" stroke-width="1.2"/>
</svg>
