<svg xmlns="http://www.w3.org/2000/svg" width="128" height="128" viewBox="0 0 128 128"><g id="MARKETING_ICONS" data-name="MARKETING ICONS"><circle cx="88.77" cy="52" r="3"/><path d="M58,88H43.8a10,10,0,1,0,0,4H58a2,2,0,0,0,0-4ZM34,96a6,6,0,1,1,6-6A6,6,0,0,1,34,96Z"/><path d="M35.8,60H50a2,2,0,0,0,0-4H35.8a10,10,0,1,0,0,4ZM20,58a6,6,0,1,1,6,6A6,6,0,0,1,20,58Z"/><path d="M34,36a10,10,0,0,0,9.8-8H58a2,2,0,0,0,0-4H43.8A10,10,0,1,0,34,36Zm0-16a6,6,0,1,1-6,6A6,6,0,0,1,34,20Z"/><path d="M111.72,62.19a118.1,118.1,0,0,0-11.63-25.38C93,25.66,85.6,20,78,20H76A10,10,0,0,0,66,30V46.24c-4.56,1.12-8,6-8,11.76s3.48,10.7,8.08,11.77C66.89,80,74.61,88,84,88a6.54,6.54,0,0,0,4.79-1.84A5.84,5.84,0,0,0,90.5,82c0-3-2.23-6-6.5-6-4.06,0-7.8,3.09-9,4.22a16.77,16.77,0,0,1-4.88-10.49C74.6,68.58,78,63.76,78,58s-3.44-10.64-8-11.76V30a6,6,0,0,1,6-6h2c13.73,0,25.57,25.77,29.91,39.4A2,2,0,0,1,106,66h-2a6,6,0,0,0-6,6v8A14,14,0,0,1,84,94H78a6,6,0,0,0-6,6v8a2,2,0,0,0,4,0v-8a2,2,0,0,1,2-2h6a18,18,0,0,0,18-18V72a2,2,0,0,1,2-2h2a6,6,0,0,0,5.72-7.81ZM84,80c1.84,0,2.5,1,2.5,2s-.66,2-2.5,2a12.45,12.45,0,0,1-5.69-1.38C79.68,81.51,82,80,84,80ZM74,58c0,4.41-2.69,8-6,8s-6-3.59-6-8,2.69-8,6-8S74,53.59,74,58Z"/></g></svg>