<svg width="128" height="128" viewBox="0 0 128 128" fill="none" xmlns="http://www.w3.org/2000/svg">
<path d="M106 54.0003C103.696 54.0034 101.463 54.8008 99.6785 56.2581C97.8936 57.7153 96.6658 59.7433 96.2018 62.0003H84.0001V50.0003C83.9987 49.3185 83.8803 48.642 83.65 48.0003H90.0001C91.5909 47.9986 93.116 47.3659 94.2408 46.241C95.3657 45.1162 95.9984 43.5911 96.0001 42.0003V31.7479C98.418 31.2026 100.547 29.779 101.975 27.753C103.403 25.727 104.028 23.243 103.728 20.7826C103.429 18.3221 102.226 16.0605 100.354 14.4362C98.482 12.8119 96.0734 11.9407 93.5953 11.9914C91.1172 12.042 88.7462 13.011 86.942 14.7105C85.1377 16.4099 84.0288 18.7188 83.8301 21.1894C83.6315 23.6601 84.3572 26.1164 85.8668 28.0824C87.3763 30.0483 89.562 31.3837 92.0001 31.8297V42.0003C91.9994 42.5305 91.7885 43.0388 91.4136 43.4138C91.0386 43.7887 90.5303 43.9996 90.0001 44.0003H68.0001C67.4697 44.0003 66.961 44.211 66.5859 44.5861C66.2108 44.9612 66.0001 45.4699 66.0001 46.0003C66.0001 46.5307 66.2108 47.0394 66.5859 47.4145C66.961 47.7896 67.4697 48.0003 68.0001 48.0003H78.0001C78.5303 48.001 79.0386 48.2119 79.4136 48.5868C79.7885 48.9618 79.9994 49.4701 80.0001 50.0003V78.0003C79.9994 78.5305 79.7885 79.0388 79.4136 79.4138C79.0386 79.7887 78.5303 79.9996 78.0001 80.0003H49.0001C48.7349 80.0001 48.4807 79.8947 48.2932 79.7072C48.1057 79.5197 48.0003 79.2655 48.0001 79.0003V50.0003C48.0008 49.4701 48.2117 48.9618 48.5867 48.5868C48.9616 48.2119 49.4699 48.001 50.0001 48.0003H58.0001C58.5305 48.0003 59.0392 47.7896 59.4143 47.4145C59.7894 47.0394 60.0001 46.5307 60.0001 46.0003V31.7986C62.4282 31.303 64.5858 29.9235 66.0545 27.9275C67.5232 25.9315 68.1985 23.4612 67.9495 20.9956C67.7004 18.53 66.5447 16.2447 64.7064 14.5828C62.8681 12.9208 60.4783 12.0007 58.0001 12.0007C55.522 12.0007 53.1321 12.9208 51.2938 14.5828C49.4555 16.2447 48.2998 18.53 48.0507 20.9956C47.8017 23.4612 48.477 25.9315 49.9457 27.9275C51.4145 29.9235 53.572 31.303 56.0001 31.7986V44.0003H50.0001C48.4093 44.002 46.8842 44.6347 45.7594 45.7596C44.6345 46.8844 44.0018 48.4095 44.0001 50.0003V62.0003H31.7984C31.3028 59.5722 29.9233 57.4146 27.9273 55.9459C25.9313 54.4772 23.461 53.8019 20.9954 54.0509C18.5298 54.3 16.2445 55.4557 14.5826 57.294C12.9206 59.1323 12.0005 61.5221 12.0005 64.0003C12.0005 66.4784 12.9206 68.8683 14.5826 70.7066C16.2445 72.5449 18.5298 73.7006 20.9954 73.9497C23.461 74.1987 25.9313 73.5234 27.9273 72.0547C29.9233 70.5859 31.3028 68.4284 31.7984 66.0003H44.0001V79.0003C44.0001 79.3362 44.034 79.6712 44.1012 80.0003H38.0001C36.4093 80.002 34.8842 80.6347 33.7594 81.7596C32.6345 82.8844 32.0018 84.4095 32.0001 86.0003V96.2527C29.5822 96.798 27.4529 98.2217 26.0251 100.248C24.5972 102.274 23.9724 104.758 24.2719 107.218C24.5714 109.679 25.7738 111.94 27.646 113.564C29.5182 115.189 31.9268 116.06 34.4049 116.009C36.883 115.959 39.254 114.99 41.0582 113.29C42.8625 111.591 43.9714 109.282 44.1701 106.811C44.3687 104.341 43.643 101.884 42.1335 99.9183C40.624 97.9523 38.4383 96.6169 36.0001 96.171V86.0003C36.0008 85.4701 36.2117 84.9618 36.5867 84.5869C36.9616 84.2119 37.4699 84.001 38.0001 84.0003H68.0001V96.202C65.572 96.6976 63.4145 98.0771 61.9457 100.073C60.477 102.069 59.8017 104.539 60.0507 107.005C60.2998 109.471 61.4555 111.756 63.2938 113.418C65.1321 115.08 67.5219 116 70.0001 116C72.4783 116 74.8681 115.08 76.7064 113.418C78.5447 111.756 79.7004 109.471 79.9495 107.005C80.1985 104.539 79.5233 102.069 78.0545 100.073C76.5858 98.0771 74.4282 96.6976 72.0001 96.202V84.0003H78.0001C79.5909 83.9986 81.116 83.3659 82.2408 82.241C83.3657 81.1162 83.9984 79.5911 84.0001 78.0003V66.0003H96.2018C96.5802 67.8543 97.4768 69.5628 98.7875 70.9275C100.098 72.2922 101.769 73.2571 103.606 73.71C105.444 74.1629 107.372 74.0852 109.166 73.4861C110.961 72.887 112.549 71.7909 113.746 70.3253C114.943 68.8596 115.699 67.0845 115.927 65.2061C116.155 63.3278 115.846 61.4232 115.035 59.7137C114.224 58.0042 112.944 56.5599 111.345 55.5485C109.746 54.5372 107.892 54.0003 106 54.0003ZM87.798 22.0003C87.798 20.8136 88.1499 19.6536 88.8091 18.6669C89.4684 17.6802 90.4055 16.9111 91.5019 16.457C92.5982 16.0029 93.8046 15.8841 94.9685 16.1156C96.1324 16.3471 97.2015 16.9185 98.0406 17.7577C98.8797 18.5968 99.4512 19.6659 99.6827 20.8298C99.9142 21.9936 99.7954 23.2 99.3412 24.2964C98.8871 25.3928 98.1181 26.3298 97.1314 26.9891C96.1447 27.6484 94.9846 28.0003 93.798 28.0003C92.2072 27.9985 90.6821 27.3658 89.5573 26.241C88.4324 25.1162 87.7997 23.5911 87.798 22.0003H87.798ZM52.0001 22.0003C52.0001 20.8136 52.352 19.6536 53.0113 18.6669C53.6706 17.6802 54.6077 16.9111 55.704 16.457C56.8004 16.0029 58.0068 15.8841 59.1706 16.1156C60.3345 16.3471 61.4036 16.9185 62.2427 17.7577C63.0819 18.5968 63.6533 19.6659 63.8848 20.8298C64.1163 21.9936 63.9975 23.2 63.5434 24.2964C63.0893 25.3928 62.3202 26.3298 61.3335 26.9891C60.3468 27.6484 59.1868 28.0003 58.0001 28.0003C56.4093 27.9986 54.8842 27.3659 53.7594 26.241C52.6345 25.1162 52.0018 23.5911 52.0001 22.0003ZM22.0001 70.0003C20.8134 70.0003 19.6534 69.6484 18.6667 68.9891C17.68 68.3298 16.911 67.3928 16.4568 66.2964C16.0027 65.2 15.8839 63.9936 16.1154 62.8298C16.3469 61.6659 16.9184 60.5968 17.7575 59.7577C18.5966 58.9185 19.6657 58.3471 20.8296 58.1156C21.9935 57.8841 23.1999 58.0029 24.2962 58.457C25.3926 58.9111 26.3296 59.6802 26.9889 60.6669C27.6482 61.6536 28.0001 62.8136 28.0001 64.0003C27.9984 65.5911 27.3657 67.1162 26.2408 68.241C25.116 69.3659 23.5909 69.9986 22.0001 70.0003ZM40.2023 106C40.2023 107.187 39.8504 108.347 39.1911 109.334C38.5318 110.32 37.5947 111.089 36.4984 111.544C35.402 111.998 34.1956 112.117 33.0317 111.885C31.8678 111.653 30.7987 111.082 29.9596 110.243C29.1205 109.404 28.5491 108.335 28.3175 107.171C28.086 106.007 28.2049 104.801 28.659 103.704C29.1131 102.608 29.8821 101.671 30.8688 101.011C31.8555 100.352 33.0156 100 34.2023 100C35.793 100.002 37.3181 100.635 38.443 101.76C39.5678 102.884 40.2005 104.41 40.2023 106ZM76.0001 106C76.0001 107.187 75.6482 108.347 74.9889 109.334C74.3296 110.32 73.3926 111.089 72.2962 111.544C71.1999 111.998 69.9935 112.117 68.8296 111.885C67.6657 111.653 66.5966 111.082 65.7575 110.243C64.9184 109.404 64.3469 108.335 64.1154 107.171C63.8839 106.007 64.0027 104.801 64.4568 103.704C64.911 102.608 65.68 101.671 66.6667 101.011C67.6534 100.352 68.8134 100 70.0001 100C71.5909 100.002 73.116 100.635 74.2408 101.76C75.3657 102.884 75.9984 104.41 76.0001 106ZM106 70.0003C104.813 70.0003 103.653 69.6484 102.667 68.9891C101.68 68.3298 100.911 67.3928 100.457 66.2964C100.003 65.2 99.8839 63.9936 100.115 62.8298C100.347 61.6659 100.918 60.5968 101.757 59.7577C102.597 58.9185 103.666 58.3471 104.83 58.1156C105.993 57.8841 107.2 58.0029 108.296 58.457C109.393 58.9111 110.33 59.6802 110.989 60.6669C111.648 61.6536 112 62.8136 112 64.0003C111.998 65.5911 111.366 67.1162 110.241 68.241C109.116 69.3659 107.591 69.9986 106 70.0003Z" fill="black"/>
</svg>
